<svg xmlns="http://www.w3.org/2000/svg" viewBox="0 0 32 32">
  <rect width="32" height="32" rx="8" fill="#1e3a5f"/>
  <path d="M16 6C10.477 6 6 10.477 6 16c0 1.821.487 3.53 1.338 5.007L6 26l5.174-1.316A9.953 9.953 0 0016 26c5.523 0 10-4.477 10-10S21.523 6 16 6z" fill="#25d366"/>
  <path d="M13 12.5c-.3-.7-1.1-.7-1.4 0l-.8 1.8c-.1.3 0 .6.2.8 1 1.2 2.2 2.3 3.5 3.2.3.2.7.2 1 0l1.8-.8c.7-.3.7-1.1 0-1.4l-1.5-.7a.5.5 0 00-.5.1l-.5.5c-.7-.5-1.4-1.1-1.9-1.8l.5-.5c.1-.2.2-.4.1-.5z" fill="white"/>
</svg>
